<?xml version="1.0" encoding="iso-8859-1"?>
<!-- Generator: Adobe Illustrator 19.0.0, SVG Export Plug-In . SVG Version: 6.00 Build 0)  -->
<svg version="1.1" id="Capa_1" xmlns="http://www.w3.org/2000/svg" xmlns:xlink="http://www.w3.org/1999/xlink" x="0px" y="0px"
	 viewBox="0 0 512.001 512.001" style="enable-background:new 0 0 512.001 512.001;" xml:space="preserve">
<g>
	<g>
		<path d="M345.466,266.539c-0.003-0.157-0.011-0.314-0.024-0.471c-0.008-0.1-0.019-0.2-0.031-0.299
			c-0.017-0.14-0.039-0.28-0.064-0.42c-0.021-0.116-0.045-0.231-0.071-0.345c-0.027-0.118-0.057-0.236-0.09-0.353
			c-0.038-0.133-0.079-0.265-0.123-0.395c-0.034-0.097-0.069-0.195-0.107-0.292c-0.056-0.143-0.116-0.284-0.18-0.422
			c-0.023-0.05-0.04-0.101-0.065-0.151L263.554,97.491c-0.014-0.029-0.033-0.054-0.048-0.082c-0.145-0.288-0.303-0.568-0.483-0.832
			c-0.008-0.012-0.018-0.023-0.027-0.036c-0.168-0.245-0.354-0.475-0.549-0.697c-0.057-0.064-0.114-0.127-0.172-0.191
			c-0.19-0.202-0.388-0.394-0.599-0.575c-0.025-0.021-0.048-0.046-0.073-0.067c-0.238-0.198-0.49-0.376-0.751-0.544
			c-0.06-0.039-0.122-0.074-0.184-0.111c-0.23-0.138-0.466-0.265-0.712-0.379c-0.044-0.021-0.087-0.044-0.131-0.063
			c-0.29-0.127-0.588-0.237-0.896-0.328c-0.049-0.015-0.099-0.025-0.149-0.038c-0.257-0.07-0.517-0.125-0.784-0.168
			c-0.079-0.013-0.157-0.026-0.238-0.036c-0.315-0.04-0.635-0.068-0.961-0.068s-0.646,0.028-0.961,0.068
			c-0.08,0.01-0.158,0.023-0.238,0.036c-0.267,0.043-0.528,0.098-0.784,0.168c-0.049,0.014-0.1,0.024-0.149,0.038
			c-0.307,0.09-0.606,0.201-0.896,0.328c-0.045,0.02-0.087,0.043-0.131,0.063c-0.245,0.113-0.481,0.241-0.712,0.379
			c-0.061,0.037-0.123,0.073-0.184,0.111c-0.261,0.167-0.513,0.346-0.751,0.544c-0.025,0.021-0.048,0.045-0.073,0.067
			c-0.211,0.18-0.409,0.372-0.599,0.575c-0.059,0.062-0.116,0.125-0.172,0.191c-0.195,0.223-0.38,0.453-0.549,0.697
			c-0.008,0.012-0.018,0.023-0.027,0.036c-0.18,0.265-0.338,0.546-0.483,0.832c-0.014,0.029-0.034,0.053-0.048,0.082l-27.088,55.372
			c-1.825,3.731-0.28,8.236,3.451,10.061c3.731,1.823,8.236,0.28,10.061-3.451l12.81-26.187v77.907
			c-9.004,3.124-15.488,11.687-15.488,21.741c0,12.688,10.322,23.01,23.01,23.01c12.688,0,23.01-10.322,23.01-23.01
			c0-10.054-6.484-18.617-15.488-21.741v-77.906l62.3,127.356c-19.058,5.025-33.154,22.405-33.154,43.02v3.406h-73.334v-3.406
			c0-20.615-14.097-37.995-33.155-43.02l33.077-67.616c1.825-3.732,0.28-8.236-3.451-10.061c-3.732-1.823-8.236-0.28-10.061,3.452
			l-37.654,76.973c-0.024,0.05-0.042,0.101-0.065,0.151c-0.064,0.138-0.124,0.279-0.18,0.422c-0.038,0.097-0.073,0.195-0.107,0.292
			c-0.045,0.13-0.086,0.262-0.123,0.395c-0.033,0.117-0.063,0.235-0.09,0.353c-0.026,0.114-0.05,0.229-0.071,0.345
			c-0.026,0.14-0.047,0.28-0.064,0.42c-0.012,0.099-0.023,0.199-0.031,0.299c-0.013,0.157-0.021,0.314-0.024,0.471
			c-0.001,0.053-0.008,0.104-0.008,0.157c0,0.042,0.006,0.082,0.006,0.123c0.003,0.152,0.011,0.304,0.023,0.455
			c0.008,0.106,0.016,0.212,0.029,0.316c0.015,0.127,0.036,0.254,0.058,0.38c0.021,0.124,0.043,0.249,0.07,0.37
			c0.023,0.104,0.052,0.206,0.079,0.308c0.037,0.137,0.074,0.274,0.118,0.408c0.03,0.091,0.065,0.18,0.098,0.269
			c0.051,0.137,0.102,0.274,0.161,0.406c0.041,0.093,0.087,0.183,0.132,0.275c0.06,0.122,0.119,0.244,0.186,0.362
			c0.059,0.105,0.123,0.207,0.188,0.309c0.061,0.097,0.121,0.197,0.187,0.291c0.08,0.116,0.167,0.228,0.254,0.339
			c0.059,0.076,0.116,0.152,0.179,0.227c0.097,0.115,0.202,0.227,0.306,0.337c0.062,0.065,0.122,0.131,0.185,0.194
			c0.105,0.103,0.216,0.201,0.327,0.298c0.075,0.066,0.15,0.132,0.229,0.195c0.102,0.081,0.209,0.158,0.315,0.236
			c0.099,0.072,0.2,0.143,0.303,0.211c0.092,0.059,0.188,0.115,0.283,0.172c0.127,0.075,0.256,0.146,0.387,0.215
			c0.039,0.02,0.074,0.043,0.113,0.063c0.043,0.021,0.087,0.035,0.13,0.055c0.174,0.081,0.353,0.156,0.535,0.225
			c0.081,0.031,0.162,0.062,0.244,0.089c0.174,0.058,0.35,0.107,0.529,0.153c0.09,0.023,0.18,0.049,0.269,0.069
			c0.165,0.036,0.335,0.061,0.503,0.085c0.1,0.015,0.201,0.035,0.301,0.046c0.154,0.016,0.313,0.02,0.469,0.026
			c0.106,0.005,0.213,0.018,0.319,0.018c0.006,0,0.011-0.001,0.017-0.001c16.232,0.006,29.435,13.213,29.435,29.446v37.439h-8.12
			c-14.422,0-26.156,11.734-26.156,26.156c0,14.422,11.734,26.156,26.156,26.156h8.12v24.936c0,9.676,7.873,17.549,17.549,17.549
			h67.161c9.676,0,17.549-7.873,17.549-17.549v-24.936h11.638c14.422,0,26.156-11.734,26.156-26.156
			c0-14.422-11.734-26.156-26.156-26.156h-10.479v-37.439c0-16.233,13.203-29.44,29.435-29.446c0.006,0,0.011,0.001,0.017,0.001
			c0.106,0,0.213-0.013,0.319-0.018c0.157-0.007,0.315-0.01,0.469-0.026c0.1-0.011,0.201-0.031,0.301-0.046
			c0.169-0.025,0.339-0.05,0.504-0.085c0.09-0.02,0.179-0.046,0.268-0.069c0.179-0.046,0.356-0.095,0.529-0.153
			c0.081-0.027,0.16-0.058,0.241-0.088c0.184-0.069,0.363-0.144,0.54-0.227c0.042-0.02,0.085-0.033,0.127-0.053
			c0.038-0.019,0.072-0.042,0.11-0.061c0.134-0.068,0.266-0.142,0.395-0.219c0.093-0.054,0.186-0.109,0.275-0.167
			c0.106-0.069,0.209-0.141,0.311-0.216c0.104-0.075,0.209-0.15,0.308-0.231c0.08-0.064,0.157-0.132,0.235-0.201
			c0.109-0.095,0.219-0.191,0.321-0.292c0.066-0.064,0.128-0.132,0.192-0.2c0.103-0.108,0.206-0.218,0.301-0.331
			c0.063-0.075,0.122-0.154,0.182-0.233c0.085-0.109,0.171-0.219,0.249-0.333c0.067-0.096,0.128-0.198,0.191-0.297
			c0.062-0.1,0.126-0.2,0.185-0.303c0.067-0.119,0.127-0.244,0.188-0.367c0.044-0.09,0.089-0.179,0.13-0.27
			c0.059-0.134,0.111-0.272,0.163-0.41c0.033-0.088,0.067-0.177,0.097-0.266c0.044-0.134,0.082-0.272,0.119-0.41
			c0.027-0.101,0.055-0.203,0.078-0.306c0.027-0.122,0.049-0.247,0.07-0.372c0.022-0.126,0.042-0.252,0.058-0.379
			c0.012-0.104,0.021-0.211,0.029-0.316c0.012-0.151,0.02-0.303,0.023-0.455c0.001-0.041,0.006-0.082,0.006-0.123
			C345.474,266.643,345.468,266.592,345.466,266.539z M264.766,232.935c0,4.393-3.574,7.967-7.967,7.967
			c-4.393,0-7.967-3.574-7.967-7.967c0-4.393,3.574-7.967,7.967-7.967C261.192,224.968,264.766,228.542,264.766,232.935z
			 M220.131,322.11h73.334v18.991h-73.334V322.11z M292.307,418.35c0,1.382-1.125,2.507-2.507,2.507h-67.161
			c-1.382,0-2.507-1.125-2.507-2.507v-24.936h72.175V418.35z M318.987,356.144c6.128,0,11.114,4.986,11.114,11.114
			s-4.986,11.114-11.114,11.114h-19.159H212.61h-15.641c-6.128,0-11.114-4.986-11.114-11.114s4.986-11.114,11.114-11.114h15.641
			h88.376H318.987z"/>
	</g>
</g>
<g>
	<g>
		<path d="M428.748,279.218c4.154,0,7.521-3.367,7.521-7.521v-33.459c0-4.154-3.367-7.521-7.521-7.521h-9.208v-97.358h9.208v-0.001
			c4.154,0,7.521-3.367,7.521-7.521V92.378c0-4.154-3.367-7.521-7.521-7.521h-9.536c-1.639-20.367-9.713-39.624-23.175-54.877
			c-16.117-18.263-38.706-28.878-63.602-29.887C330.918,0.031,329.371,0,327.838,0c-26.086,0-51.056,9.023-71.04,25.543
			C236.814,9.023,211.844,0,185.758,0c-1.532,0-3.08,0.031-4.597,0.093c-24.13,0.979-45.421,10.545-61.576,27.666
			c-14.538,15.408-23.438,35.636-25.194,57.098H83.252c-4.154,0-7.521,3.367-7.521,7.521v33.459c0,4.154,3.367,7.521,7.521,7.521
			h9.208v97.358h-9.208c-4.154,0-7.521,3.367-7.521,7.521v33.459c0,4.154,3.367,7.521,7.521,7.521h9.208v99.155h-9.208
			c-4.154,0-7.521,3.367-7.521,7.521v33.459c0,4.154,3.367,7.521,7.521,7.521h9.168c1.588,20.466,9.673,39.827,23.193,55.148
			c16.117,18.263,38.706,28.878,63.602,29.887c1.518,0.062,3.065,0.093,4.597,0.093c26.086,0,51.056-9.023,71.04-25.544
			c19.985,16.52,44.955,25.544,71.04,25.544c1.532,0,3.08-0.031,4.597-0.093c24.13-0.979,45.422-10.545,61.576-27.666
			c14.539-15.408,23.438-35.636,25.194-57.098h11.14c4.154,0,7.521-3.367,7.521-7.521v-33.459c0-4.154-3.367-7.521-7.521-7.521
			h-8.859v-99.425H428.748z M421.227,99.899v18.417h-18.417V99.899H421.227z M90.774,118.316V99.899h10.785c0.006,0,0.012,0,0.019,0
			h7.612v18.417H90.774z M90.774,264.175v-18.417h18.417v18.417H90.774z M90.774,411.831v-18.417h18.417v18.417H90.774z
			 M329.88,496.878c-1.316,0.053-2.657,0.08-3.987,0.08c-24.545,0-47.951-9.236-65.907-26.007c-2.89-2.699-7.377-2.699-10.267,0
			c-17.956,16.77-41.362,26.006-65.907,26.006c-1.33,0-2.672-0.027-3.988-0.08c-43.944-1.782-69.075-36.141-72.307-70.005h9.193
			c4.154,0,7.521-3.367,7.521-7.521v-33.459c0-4.154-3.367-7.521-7.521-7.521h-9.209v-99.155h9.209c4.154,0,7.521-3.367,7.521-7.521
			v-33.459c0-4.154-3.367-7.521-7.521-7.521h-9.209v-97.358h9.209c4.154,0,7.521-3.367,7.521-7.521V92.378
			c0-4.154-3.367-7.521-7.521-7.521h-7.223c3.316-33.737,28.769-67.971,72.284-69.735c1.316-0.053,2.657-0.08,3.987-0.08
			c24.545,0,47.951,9.236,65.907,26.006c2.89,2.699,7.377,2.7,10.267,0c17.956-16.77,41.362-26.006,65.907-26.006
			c1.33,0,2.672,0.027,3.988,0.08c43.828,1.777,68.937,35.959,72.277,69.735h-8.814c-4.154,0-7.521,3.367-7.521,7.521v33.459
			c0,4.154,3.367,7.521,7.521,7.521h9.209v97.358h-9.209c-4.154,0-7.521,3.367-7.521,7.521v33.459c0,4.154,3.367,7.521,7.521,7.521
			h9.209v99.425h-9.558c-4.154,0-7.521,3.367-7.521,7.521v33.459c0,4.154,3.367,7.521,7.521,7.521h7.223
			C398.848,460.88,373.395,495.114,329.88,496.878z M420.877,393.684v18.417H410.09c-0.006,0-0.011,0-0.017,0h-7.612v-18.417
			H420.877z M402.811,264.175v-18.417h18.417v18.417H402.811z"/>
	</g>
</g>
<g>
</g>
<g>
</g>
<g>
</g>
<g>
</g>
<g>
</g>
<g>
</g>
<g>
</g>
<g>
</g>
<g>
</g>
<g>
</g>
<g>
</g>
<g>
</g>
<g>
</g>
<g>
</g>
<g>
</g>
</svg>
